# AST/ASF file generated using VICON BodyLanguage
# -----------------------------------------------
:version 1.10
:name VICON
:units
  mass 1.0
  length 0.45
  angle deg
:documentation
   .ast/.asf automatically generated from VICON data using
   VICON BodyBuilder and BodyLanguage model FoxedUp or BRILLIANT.MOD
:root
   order TX TY TZ RX RY RZ
   axis XYZ
   position 0 0 0  
   orientation 0 0 0 
:bonedata
  begin
     id 1 
     name lhipjoint
     direction 0.716712 -0.619771 0.3197 
     length 2.67249 
     axis 0 0 0  XYZ
  end
  begin
     id 2 
     name lfemur
     direction 0.34202 -0.939693 0  
     length 7.04375  
     axis 0 0 20  XYZ
    dof rx ry rz
    limits (-160.0 20.0)
           (-70.0 70.0)
           (-60.0 70.0)
  end
  begin
     id 3 
     name ltibia
     direction 0.34202 -0.939693 0   
     length 8.12233   
     axis 0 0 20   XYZ
    dof rx
    limits (-10.0 170.0)
  end
  begin
     id 4 
     name lfoot
     direction 0.0986665 -0.271084 0.957485   
     length 1.97802   
     axis -90 7.62852e-016 20   XYZ
    dof rx rz
    limits (-45.0 90.0)
           (-70.0 20.0)
  end
  begin
     id 5 
     name ltoes
     direction 1.53569e-011 -4.21962e-011 1   
     length 0.991074   
     axis -90 7.62852e-016 20   XYZ
    dof rx
    limits (-90.0 20.0)
  end
  begin
     id 6 
     name rhipjoint
     direction -0.684484 -0.647907 0.334213   
     length 2.55643  
     axis 0 0 0  XYZ 
  end
  begin
     id 7 
     name rfemur
     direction -0.34202 -0.939693 0   
     length 7.00452   
     axis 0 0 -20   XYZ
    dof rx ry rz
    limits (-160.0 20.0)
           (-70.0 70.0)
           (-70.0 60.0)
  end
  begin
     id 8 
     name rtibia
     direction -0.34202 -0.939693 0   
     length 7.98545   
     axis 0 0 -20   XYZ
    dof rx
    limits (-10.0 170.0)
 end
 begin
     id 9 
     name rfoot
     direction -0.0877828 -0.241181 0.966502   
     length 2.17223  
     axis -90 -7.62852e-016 -20   XYZ
    dof rx rz
    limits (-45.0 90.0)
           (-20.0 70.0)
  end
  begin
     id 10 
     name rtoes
     direction -1.53586e-011 -4.22014e-011 1   
     length 1.0886   
     axis -90 -7.62852e-016 -20   XYZ
    dof rx
    limits (-90.0 20.0)
  end
  begin
     id 11 
     name lowerback
     direction -0.0470064 0.989573 -0.136149   
     length 2.05976   
     axis 0 0 0   XYZ
    dof rx ry rz
    limits (-20.0 45.0)
           (-30.0 30.0)
           (-30.0 30.0)
  end
  begin
     id 12 
     name upperback
     direction -0.00532895 0.998093 0.0615045   
     length 2.02286   
     axis 0 0 0   XYZ
    dof rx ry rz
    limits (-20.0 45.0)
           (-30.0 30.0)
           (-30.0 30.0)
  end
  begin
     id 13 
     name thorax
     direction 0.0171558 0.991502 0.128954   
     length 2.09196   
     axis 0 0 0   XYZ
    dof rx ry rz
    limits (-20.0 45.0)
           (-30.0 30.0)
           (-30.0 30.0)
  end
  begin
     id 14 
     name lowerneck
     direction 0.0221176 0.995362 0.0936194   
     length 1.70234   
     axis 0 0 0   XYZ
    dof rx ry rz
    limits (-20.0 45.0)
           (-30.0 30.0)
           (-30.0 30.0)
  end
  begin
     id 15 
     name upperneck
     direction -0.0237973 0.998511 -0.0490877   
     length 1.66068   
     axis 0 0 0   XYZ
    dof rx ry rz
    limits (-20.0 45.0)
           (-30.0 30.0)
           (-30.0 30.0)
  end
  begin
     id 16
     name head
     direction -0.00980141 0.999531 -0.0289958  
     length 1.82618  
     axis 0 0 0   XYZ
    dof rx ry rz
    limits (-20.0 45.0)
           (-30.0 30.0)
           (-30.0 30.0)
  end
  begin
     id 17 
     name lclavicle
     direction 0.894784 0.445864 -0.0238113  
     length 3.37997  
     axis 0 0 0   XYZ
    dof ry rz
    limits (-20.0 10.0)
           (0.0 20.0)
  end
  begin
     id 18 
     name lhumerus
     direction 1 -4.48975e-011 6.49229e-028   
     length 5.79016   
     axis 180 -30 -90   XYZ
    dof rx ry rz
    limits (-60.0 90.0)
           (-90.0 90.0)
           (-90.0 90.0)
  end
  begin
     id 19
     name lradius
     direction 1 -4.48959e-011 2.80427e-027   
     length 3.48314   
     axis 180 -30 -90   XYZ
    dof rx
    limits (-10.0 170.0)
  end
  begin
     id 20
     name lwrist
     direction 1 -4.48938e-011 5.60449e-029   
     length 1.74157   
     axis 8.48505e-016 90 90   XYZ
    dof ry
    limits (-180.0 0.0)
 end
  begin
     id 21 
     name lhand
     direction 1 -4.49048e-011 1.1209e-028   
     length 0.587065   
     axis -7.15228e-017 90 90   XYZ
    dof rx rz
    limits (-90.0 90.0)
           (-45.0 45.0)
  end
  begin
     id 22 
     name lfingers
     direction 1 -4.49036e-011 2.24179e-028   
     length 0.473307   
     axis -1.43046e-016 90 90   XYZ
    dof rx
    limits (0.0 90.0)
  end
  begin
     id 23
     name lthumb
     direction 0.707107 -6.34878e-011 0.707107   
     length 0.679577   
     axis -90 45 2.85299e-015   XYZ
    dof rx rz
    limits (-45.0 45.0)
           (-45.0 45.0)
  end
  begin
     id 24 
     name rclavicle
     direction -0.952963 0.303049 0.00480459   
     length 3.50503  
     axis 0 0 0   XYZ 
    dof ry rz
    limits (-10.0 20.0)
           (-20.0 0.0)
  end
  begin
     id 25 
     name rhumerus
     direction -1 -4.48973e-011 -1.5431e-027  
     length 5.69822   
     axis 180 30 90   XYZ
    dof rx ry rz
    limits (-90.0 60.0)
           (-90.0 90.0)
           (-90.0 90.0)
  end
  begin
     id 26 
     name rradius
     direction -1 -4.4896e-011 2.11972e-027   
     length 3.58077   
     axis 180 30 90   XYZ
    dof rx
    limits (-10.0 170.0)
  end
  begin
     id 27 
     name rwrist
     direction -1 -4.48943e-011 5.60449e-029   
     length 1.79039   
     axis 8.48505e-016 -90 -90   XYZ
    dof ry
    limits (-180.0 0.0)
  end
  begin
     id 28
     name rhand
     direction -1 -4.49007e-011 1.1209e-028   
     length 0.620156   
     axis -7.15228e-017 -90 -90   XYZ
    dof rx rz
    limits (-90.0 90.0)
           (-45.0 45.0)
  end
  begin
     id 29
     name rfingers
     direction -1 -4.49025e-011 2.24179e-028   
     length 0.499985   
     axis -1.43046e-016 -90 -90   XYZ
    dof rx
    limits (0.0 90.0)
  end
  begin
     id 30
     name rthumb
     direction -0.707107 -6.3481e-011 0.707107   
     length 0.717882   
     axis -90 -45 -2.85299e-015   XYZ
    dof rx rz
    limits (-45.0 45.0)
           (-45.0 45.0)
  end
:hierarchy
  begin
    root lhipjoint rhipjoint lowerback
    lhipjoint lfemur
    lfemur ltibia
    ltibia lfoot
    lfoot ltoes
    rhipjoint rfemur
    rfemur rtibia
    rtibia rfoot
    rfoot rtoes
    lowerback upperback
    upperback thorax
    thorax lowerneck lclavicle rclavicle
    lowerneck upperneck
    upperneck head
    lclavicle lhumerus
    lhumerus lradius
    lradius lwrist
    lwrist lhand lthumb
    lhand lfingers
    rclavicle rhumerus
    rhumerus rradius
    rradius rwrist
    rwrist rhand rthumb
    rhand rfingers
  end

#!OML:ASF H:\Terrain\Patient Classification 1\PaulMetrics\March17Take4\PaulMetrics.ASF
:FULLY-SPECIFIED
:DEGREES
42
root 6.63576 17.3609 -8.88444 4.99617 -10.8024 1.08998
lowerback 2.54483 1.62493 -2.72829
upperback -2.65193 2.03263 -0.376875
thorax -4.24454 1.0875 1.01177
lowerneck -6.07648 5.51636 4.78628
upperneck 13.4692 7.61945 -4.86827
head 5.425 3.6499 -1.78754
rclavicle 3.16829e-014 3.8763e-015
rhumerus -42.3099 11.4637 -84.7317
rradius 49.9291
rwrist -13.7752
rhand -20.8137 -32.2946
rfingers 7.12502
rthumb 5.55427 -62.2018
lclavicle 3.16829e-014 3.8763e-015
lhumerus -49.2683 -14.105 89.0303
lradius 38.1131
lwrist 20.0372
lhand -10.3846 -19.6939
lfingers 7.12502
lthumb 15.6133 9.69602
rfemur -14.0107 8.09051 26.8708
rtibia 29.1057
rfoot -19.4891 -10.7571
rtoes 13.572
lfemur -35.8203 -2.4775 -21.8503
ltibia 55.8828
lfoot -14.4904 7.94906
ltoes 3.12575
43
root 6.60515 17.3691 -8.7505 5.06961 -11.0022 1.13528
lowerback 2.38033 1.63931 -2.70698
upperback -2.63312 2.05386 -0.500347
thorax -4.12699 1.09406 0.876685
lowerneck -6.36457 5.57249 5.03065
upperneck 13.5639 7.67093 -4.94201
head 5.51879 3.67647 -1.83637
rclavicle 1.49089e-014 6.65929e-015
rhumerus -41.9767 11.2321 -84.4061
rradius 50.6928
rwrist -12.0029
rhand -18.2325 -34.5251
rfingers 7.12502
rthumb 8.0459 -64.352
lclavicle 1.49089e-014 6.65929e-015
lhumerus -49.3935 -13.7863 88.6287
lradius 38.194
lwrist 19.7887
lhand -10.3346 -19.3901
lfingers 7.12502
lthumb 15.6614 9.99602
rfemur -13.2377 8.12948 26.9101
rtibia 28.5007
rfoot -19.3827 -10.9273
rtoes 12.5652
lfemur -36.2182 -2.7019 -21.9284
ltibia 54.0585
lfoot -14.8304 8.21252
ltoes 4.73503
44
root 6.56902 17.3744 -8.61734 4.98455 -11.2776 1.16851
lowerback 2.38314 1.71853 -2.73443
upperback -2.55066 2.15541 -0.6212
thorax -4.04306 1.14183 0.762852
lowerneck -6.25026 5.52134 4.97293
upperneck 13.2824 7.58303 -4.82511
head 5.40046 3.64243 -1.80351
rclavicle -1.63376e-015 -8.74653e-015
rhumerus -41.66 11.2397 -84.4172
rradius 51.1067
rwrist -12.4882
rhand -19.3742 -33.3026
rfingers 7.12502
rthumb 6.94389 -63.1687
lclavicle -1.63376e-015 -8.74653e-015
lhumerus -49.4679 -13.0788 87.9953
lradius 38.4256
lwrist 19.137
lhand -10.6549 -20.1298
lfingers 7.12502
lthumb 15.3529 9.28027
rfemur -12.2221 8.26837 27.0077
rtibia 27.7682
rfoot -19.4007 -11.0832
rtoes 11.7008
lfemur -36.4999 -2.52937 -22.0678
ltibia 52.076
lfoot -14.6224 8.65753
ltoes 2.04496
45
root 6.53254 17.3905 -8.48129 5.02044 -11.6748 0.983064
lowerback 2.31767 1.75617 -2.68617
upperback -2.52607 2.21262 -0.560495
thorax -3.98289 1.16913 0.797624
lowerneck -6.08174 5.61543 5.05007
upperneck 12.9108 7.73472 -5.12481
head 5.27895 3.70691 -1.90569
rclavicle 3.52625e-014 -9.93923e-016
rhumerus -41.3927 11.5411 -84.2493
rradius 51.7461
rwrist -11.8893
rhand -18.953 -33.923
rfingers 7.12502
rthumb 7.35051 -63.7753
lclavicle 3.52625e-014 -9.93923e-016
lhumerus -49.5373 -11.7554 87.2029
lradius 38.7094
lwrist 18.112
lhand -10.7033 -20.2348
lfingers 7.12502
lthumb 15.3063 9.17882
rfemur -11.2586 8.46075 27.2888
rtibia 27.0063
rfoot -19.4492 -10.9715
rtoes 11.8026
lfemur -36.7972 -2.40977 -21.8932
ltibia 49.9846
lfoot -14.8624 8.92757
ltoes 0.609551
46
root 6.50274 17.4024 -8.34131 5.16577 -11.9862 0.869188
lowerback 2.1075 1.80024 -2.58289
upperback -2.56016 2.28219 -0.554739
thorax -3.89756 1.20051 0.748163
lowerneck -6.29504 5.74194 5.47004
upperneck 12.9681 7.92761 -5.65446
head 5.38144 3.78311 -2.11546
rclavicle -2.86219e-014 1.82882e-014
rhumerus -41.316 11.7525 -84.1775
rradius 52.5606
rwrist -11.5143
rhand -18.5925 -34.5625
rfingers 7.12502
rthumb 7.69844 -64.4023
lclavicle -2.86219e-014 1.82882e-014
lhumerus -49.5592 -11.1395 86.754
lradius 38.6908
lwrist 17.3263
lhand -10.3749 -19.959
lfingers 7.12502
lthumb 15.6226 9.4302
rfemur -10.383 8.43058 27.4347
rtibia 26.1424
rfoot -19.3391 -10.6085
rtoes 13.0984
lfemur -36.9903 -2.6019 -21.7382
ltibia 47.8404
lfoot -15.5196 8.94453
ltoes 2.00841
47
root 6.47278 17.4006 -8.21056 5.2015 -12.1087 0.967758
lowerback 2.11942 1.83408 -2.66764
upperback -2.63845 2.31968 -0.622223
thorax -3.98771 1.22192 0.721567
lowerneck -6.24993 5.76987 5.30395
upperneck 13.016 7.96917 -5.51408
head 5.37866 3.80478 -2.04308
rclavicle 2.90412e-015 1.63003e-014
rhumerus -41.3764 11.7283 -84.147
rradius 53.4349
rwrist -11.5872
rhand -18.5627 -34.9207
rfingers 7.12502
rthumb 7.72729 -64.7595
lclavicle 2.90412e-015 1.63003e-014
lhumerus -49.6341 -11.4072 86.8555
lradius 38.3199
lwrist 17.3931
lhand -10.4336 -20.2421
lfingers 7.12502
lthumb 15.5661 9.15146
rfemur -9.42466 8.33252 27.4059
rtibia 25.1363
rfoot -19.1759 -10.4451
rtoes 13.5373
lfemur -37.1119 -2.91439 -21.7555
ltibia 45.6803
lfoot -15.855 8.69833
ltoes 4.63469
48
root 6.43678 17.4165 -8.08016 5.2084 -12.3809 0.994779
lowerback 2.20819 1.91999 -2.78956
upperback -2.71848 2.42343 -0.657989
thorax -4.12875 1.27843 0.741352
lowerneck -6.23255 5.76851 4.95401
upperneck 13.0868 7.96705 -5.20097
head 5.37077 3.80655 -1.89027
rclavicle 5.26376e-014 -1.33186e-014
rhumerus -41.4351 11.9494 -84.1647
rradius 54.2688
rwrist -11.9825
rhand -18.0286 -35.4108
rfingers 7.12502
rthumb 8.24273 -65.23
lclavicle 5.26376e-014 -1.33186e-014
lhumerus -49.7222 -11.8808 87.0924
lradius 37.961
lwrist 17.8383
lhand -10.2478 -20.0297
lfingers 7.12502
lthumb 15.745 9.34989
rfemur -8.38117 8.35822 27.4521
rtibia 24.0998
rfoot -19.0922 -10.3383
rtoes 12.6426
lfemur -37.3101 -2.95804 -21.776
ltibia 43.5657
lfoot -15.5336 8.99873
ltoes 3.42355
49
root 6.39768 17.4319 -7.94593 5.34845 -12.7768 0.852594
lowerback 2.11179 2.06225 -2.76921
upperback -2.79793 2.61479 -0.692506
thorax -4.16097 1.37342 0.684419
lowerneck -6.34913 5.70929 5.04698
upperneck 13.2071 7.88651 -5.2682
head 5.43008 3.76417 -1.92749
rclavicle 7.32708e-015 -2.08724e-014
rhumerus -41.3985 12.232 -84.2892
rradius 54.7629
rwrist -12.5675
rhand -18.4529 -34.9166
rfingers 7.12502
rthumb 7.8332 -64.7515
lclavicle 7.32708e-015 -2.08724e-014
lhumerus -49.7066 -12.165 87.0635
lradius 37.7148
lwrist 18.0178
lhand -9.83077 -19.407
lfingers 7.12502
lthumb 16.1466 9.94046
rfemur -7.35125 8.62462 27.6476
rtibia 22.9417
rfoot -19.034 -10.2681
rtoes 12.3073
lfemur -37.6199 -2.7485 -21.7455
ltibia 41.5277
lfoot -14.8133 9.79846
ltoes -1.76591
50
root 6.3587 17.4323 -7.81159 5.53502 -13.022 0.670859
lowerback 1.83674 2.126 -2.68111
upperback -2.81316 2.71135 -0.727674
thorax -4.01809 1.41727 0.604195
lowerneck -6.11261 5.60897 4.95362
upperneck 12.9717 7.74383 -5.16343
head 5.30123 3.70303 -1.90015
rclavicle 2.15402e-014 -1.98785e-015
rhumerus -41.1716 12.2656 -84.3414
rradius 55.054
rwrist -12.4262
rhand -19.3827 -34.3789
rfingers 7.12502
rthumb 6.93569 -64.2453
lclavicle 2.15402e-014 -1.98785e-015
lhumerus -49.6088 -12.0088 86.7221
lradius 37.557
lwrist 17.906
lhand -9.84924 -19.132
lfingers 7.12502
lthumb 16.1288 10.2168
rfemur -6.23136 8.9543 27.9179
rtibia 21.505
rfoot -18.9799 -10.5296
rtoes 11.6778
lfemur -37.939 -2.63202 -21.6086
ltibia 39.5735
lfoot -14.5782 10.2188
ltoes -5.12662
51
root 6.3224 17.4382 -7.67751 5.69836 -13.1258 0.388623
lowerback 1.64231 2.09437 -2.54053
upperback -2.75919 2.68329 -0.684891
thorax -3.84606 1.39819 0.580893
lowerneck -6.24836 5.65671 5.00923
upperneck 12.8428 7.79593 -5.20085
head 5.29085 3.72735 -1.91398
rclavicle -3.21037e-014 -1.53064e-014
rhumerus -40.865 12.2512 -84.2583
rradius 55.6854
rwrist -11.4794
rhand -19.0223 -35.2051
rfingers 7.12502
rthumb 7.28362 -65.0597
lclavicle -3.21037e-014 -1.53064e-014
lhumerus -49.4682 -11.4814 86.2463
lradius 37.4312
lwrist 17.4597
lhand -9.14548 -18.4572
lfingers 7.12502
lthumb 16.8064 10.8354
rfemur -5.00989 9.02439 28.3057
rtibia 19.9555
rfoot -18.8735 -10.7814
rtoes 10.4416
lfemur -38.2513 -2.60963 -21.3201
ltibia 37.696
lfoot -14.2625 10.4142
ltoes -8.40864
52
root 6.28753 17.4503 -7.54332 5.83818 -13.3026 0.243466
lowerback 1.53568 2.09737 -2.62147
upperback -2.79123 2.69113 -0.574118
thorax -3.82864 1.40642 0.742852
lowerneck -6.26509 5.72635 5.01526
upperneck 12.7158 7.9104 -5.39591
head 5.26849 3.77212 -1.96741
rclavicle -2.56028e-014 -2.78299e-015
rhumerus -40.8962 12.4481 -84.1102
rradius 56.5934
rwrist -10.9983
rhand -18.6025 -35.8828
rfingers 7.12502
rthumb 7.68882 -65.723
lclavicle -2.56028e-014 -2.78299e-015
lhumerus -49.4891 -10.815 85.9365
lradius 37.294
lwrist 16.7872
lhand -8.41162 -18.2153
lfingers 7.12502
lthumb 17.5127 11.0159
rfemur -3.81518 9.1852 28.5432
rtibia 18.4579
rfoot -18.5426 -11.1117
rtoes 9.85038
lfemur -38.5495 -2.71897 -21.1006
ltibia 35.811
lfoot -13.8884 10.487
ltoes -10.5963
53
root 6.2508 17.4548 -7.40556 5.92919 -13.5274 0.305738
lowerback 1.28109 2.13166 -2.85116
upperback -2.79413 2.7383 -0.560598
thorax -3.70154 1.43564 0.892478
lowerneck -6.13856 5.65852 4.54406
upperneck 12.6622 7.83611 -5.12898
head 5.19699 3.73325 -1.81973
rclavicle -4.02415e-014 1.64991e-014
rhumerus -40.8438 12.8277 -84.1162
rradius 57.0665
rwrist -11.3044
rhand -18.9905 -35.9099
rfingers 7.12502
rthumb 7.31431 -65.7635
lclavicle -4.02415e-014 1.64991e-014
lhumerus -49.4693 -10.4835 85.7448
lradius 37.1431
lwrist 16.5926
lhand -8.66029 -18.8655
lfingers 7.12502
lthumb 17.2734 10.3869
rfemur -2.57188 9.63998 28.6006
rtibia 16.8898
rfoot -18.0923 -11.6857
rtoes 10.6441
lfemur -38.7589 -2.96633 -21.0108
ltibia 33.9404
lfoot -14.2019 10.2968
ltoes -11.9252
54
root 6.21744 17.4479 -7.264 5.96133 -13.7093 0.4681
lowerback 1.06019 2.11191 -3.10929
upperback -2.76035 2.70935 -0.66951
thorax -3.54809 1.42475 0.935533
lowerneck -6.40262 5.71983 4.57949
upperneck 12.947 7.90658 -5.03828
head 5.33149 3.76721 -1.78135
rclavicle 1.98785e-015 -1.21259e-014
rhumerus -40.6008 13.1174 -84.3623
rradius 57.3645
rwrist -11.3834
rhand -19.122 -36.4811
rfingers 7.12502
rthumb 7.18743 -66.339
lclavicle 1.98785e-015 -1.21259e-014
lhumerus -49.3024 -10.5579 85.5641
lradius 36.862
lwrist 16.9144
lhand -8.84471 -19.2236
lfingers 7.12502
lthumb 17.0959 10.0442
rfemur -1.27099 9.7728 28.5174
rtibia 15.2729
rfoot -17.7999 -11.8463
rtoes 11.784
lfemur -38.8822 -3.37543 -20.9545
ltibia 32.1245
lfoot -15.0207 10.0113
ltoes -13.9072
55
root 6.1871 17.4459 -7.12832 6.02531 -13.8861 0.466582
lowerback 1.02907 2.11979 -3.16957
upperback -2.80791 2.71502 -0.768526
thorax -3.57825 1.42841 0.867066
lowerneck -6.40169 5.88695 4.98902
upperneck 12.8804 8.10503 -5.19103
head 5.344 3.87433 -1.87926
rclavicle 2.98674e-014 3.18055e-015
rhumerus -40.4891 13.2397 -84.6178
rradius 57.7819
rwrist -11.3327
rhand -19.0717 -36.8118
rfingers 7.12502
rthumb 7.23591 -66.668
lclavicle 2.98674e-014 3.18055e-015
lhumerus -49.122 -10.7802 85.4161
lradius 36.4787
lwrist 17.1363
lhand -9.57831 -19.6936
lfingers 7.12502
lthumb 16.3897 9.63397
rfemur 0.0550538 9.44007 28.5382
rtibia 13.6209
rfoot -17.4582 -11.5385
rtoes 12.2639
lfemur -39.1381 -3.93947 -20.5827
ltibia 30.4701
lfoot -15.5916 9.95495
ltoes -12.8016
56
root 6.15373 17.4469 -6.99901 6.23837 -14.0145 0.23664
lowerback 0.941179 2.15713 -3.00223
upperback -2.87934 2.76956 -0.825921
thorax -3.59335 1.4509 0.714244
lowerneck -6.32642 5.93907 5.37702
upperneck 12.6259 8.14775 -5.37143
head 5.27823 3.90565 -1.99829
rclavicle -3.90985e-014 -3.18055e-015
rhumerus -40.5274 13.1989 -84.7396
rradius 58.273
rwrist -11.3766
rhand -18.6385 -36.7188
rfingers 7.12502
rthumb 7.65408 -66.5603
lclavicle -3.90985e-014 -3.18055e-015
lhumerus -48.9012 -10.8905 85.1306
lradius 36.2142
lwrist 17.2367
lhand -10.3761 -20.0574
lfingers 7.12502
lthumb 15.6215 9.33189
rfemur 1.40817 9.45934 28.8369
rtibia 11.7362
rfoot -16.9785 -11.545
rtoes 12.98
lfemur -39.6072 -4.63507 -19.8839
ltibia 29.0617
lfoot -15.3583 10.2607
ltoes -9.64203
